<svg preserveAspectRatio="none" width="100%" height="100%" overflow="visible" style="display: block;" viewBox="0 0 10.1989 10.7038" fill="none" xmlns="http://www.w3.org/2000/svg">
<g id="g3484">
<path id="path3486" d="M4.65974 4.77879C5.51075 4.77879 6.14606 4.93573 6.54805 5.2451C6.94573 5.5513 7.22039 6.08179 7.36436 6.82178C7.49859 7.51346 7.44745 7.99641 7.21242 8.25704C6.97211 8.52324 6.45254 8.65825 5.66819 8.65825H4.30819L3.55423 4.77879H4.65974ZM0.211549 0C0.14842 0 0.0884644 0.0282145 0.0483296 0.0770251C0.00812431 0.125765 -0.00816977 0.189952 0.00389183 0.251953L2.00203 10.5326C2.02135 10.632 2.10846 10.7038 2.20975 10.7038H6.51624C7.86967 10.7038 8.87706 10.3363 9.51026 9.6114C10.1468 8.88269 10.3434 7.86409 10.0945 6.58394C9.99322 6.0624 9.819 5.57803 9.57671 5.14438C9.33413 4.71023 9.01355 4.30853 8.6237 3.95021C8.15703 3.51345 7.62886 3.19675 7.05527 3.01039C6.49077 2.8265 5.76581 2.73326 4.90055 2.73326H3.15676L2.65878 0.171261C2.63946 0.0718054 2.55241 0 2.45113 0H0.211549Z" fill="var(--fill-0, black)"/>
</g>
</svg>
