<svg preserveAspectRatio="none" width="100%" height="100%" overflow="visible" style="display: block;" viewBox="0 0 9.85417 9.85417" fill="none" xmlns="http://www.w3.org/2000/svg">
<g id="Vector">
<path d="M2.48671 4.90246C2.60384 5.05186 2.81992 5.07802 2.96932 4.96088C3.11872 4.84375 3.14488 4.62767 3.02775 4.47827C2.84415 4.2441 2.68589 3.98405 2.56508 3.70961C2.48859 3.53585 2.28572 3.45701 2.11196 3.5335C1.93821 3.60999 1.85936 3.81285 1.93585 3.98661C2.08099 4.31632 2.26957 4.6255 2.48671 4.90246Z" fill="var(--fill-0, #71717A)"/>
<path d="M1.64517 2.94328C1.66763 3.13179 1.83867 3.2664 2.02718 3.24393C2.2157 3.22147 2.3503 3.05043 2.32784 2.86192C2.29371 2.57556 2.30727 2.28824 2.37771 2.00851C2.42407 1.82441 2.31241 1.63758 2.12831 1.59122C1.94421 1.54486 1.75738 1.65653 1.71102 1.84063C1.6182 2.20926 1.60206 2.5816 1.64517 2.94328Z" fill="var(--fill-0, #71717A)"/>
<path d="M2.18052 0.838447C2.06971 0.9926 2.10484 1.2074 2.259 1.31821C2.41315 1.42902 2.62795 1.39388 2.73876 1.23973C2.81988 1.12688 2.91426 1.01548 3.02331 0.90643C3.15756 0.772187 3.15756 0.554537 3.02331 0.420294C2.88907 0.286051 2.67142 0.286051 2.53718 0.420294C2.40276 0.554708 2.28409 0.694369 2.18052 0.838447Z" fill="var(--fill-0, #71717A)"/>
<path d="M7.51024 4.95171C7.3931 4.8023 7.17703 4.77615 7.02763 4.89328C6.87822 5.01042 6.85207 5.22649 6.9692 5.37589C7.1528 5.61006 7.31106 5.87012 7.43187 6.14455C7.50836 6.31831 7.71123 6.39716 7.88498 6.32067C8.05874 6.24418 8.13759 6.04131 8.0611 5.86755C7.91595 5.53785 7.72738 5.22867 7.51024 4.95171Z" fill="var(--fill-0, #71717A)"/>
<path d="M8.35178 6.91089C8.32931 6.72237 8.15828 6.58776 7.96977 6.61023C7.78125 6.6327 7.64664 6.80373 7.66911 6.99225C7.70324 7.2786 7.68968 7.56593 7.61924 7.84566C7.57288 8.02976 7.68454 8.21658 7.86864 8.26294C8.05274 8.3093 8.23956 8.19764 8.28592 8.01354C8.37875 7.6449 8.39489 7.27256 8.35178 6.91089Z" fill="var(--fill-0, #71717A)"/>
<path d="M7.81643 9.01572C7.92724 8.86157 7.8921 8.64677 7.73795 8.53596C7.5838 8.42515 7.369 8.46028 7.25819 8.61444C7.17707 8.72729 7.08268 8.83869 6.97364 8.94774C6.83939 9.08198 6.83939 9.29963 6.97364 9.43387C7.10788 9.56811 7.32553 9.56811 7.45977 9.43387C7.59419 9.29946 7.71286 9.1598 7.81643 9.01572Z" fill="var(--fill-0, #71717A)"/>
<path d="M4.96445 2.89793C4.84731 2.74853 4.87347 2.53245 5.02287 2.41532C5.29983 2.19818 5.60902 2.0096 5.93872 1.86446C6.11248 1.78797 6.31534 1.86682 6.39184 2.04057C6.46833 2.21433 6.38948 2.41719 6.21572 2.49369C5.94128 2.6145 5.68123 2.77276 5.44706 2.95635C5.29766 3.07349 5.08159 3.04733 4.96445 2.89793Z" fill="var(--fill-0, #71717A)"/>
<path d="M6.6814 1.95579C6.65893 1.76728 6.79354 1.59624 6.98205 1.57378C7.34373 1.53067 7.71607 1.5468 8.08471 1.63963C8.26881 1.68599 8.38047 1.87282 8.33411 2.05692C8.28775 2.24102 8.10093 2.35268 7.91682 2.30632C7.6371 2.23588 7.34977 2.22232 7.06341 2.25644C6.8749 2.27891 6.70387 2.1443 6.6814 1.95579Z" fill="var(--fill-0, #71717A)"/>
<path d="M8.60713 2.18761C8.71794 2.03345 8.93273 1.99832 9.08689 2.10913C9.23096 2.21269 9.37062 2.33137 9.50504 2.46579C9.63928 2.60003 9.63928 2.81768 9.50504 2.95192C9.3708 3.08616 9.15315 3.08616 9.0189 2.95192C8.90985 2.84287 8.79845 2.74848 8.68561 2.66737C8.53145 2.55656 8.49632 2.34176 8.60713 2.18761Z" fill="var(--fill-0, #71717A)"/>
<path d="M4.97407 7.43885C5.12348 7.32171 5.14963 7.10564 5.0325 6.95624C4.91536 6.80683 4.69929 6.78068 4.54989 6.89781C4.31572 7.0814 4.05566 7.23967 3.78123 7.36048C3.60747 7.43697 3.52862 7.63984 3.60511 7.81359C3.6816 7.98735 3.88447 8.0662 4.05823 7.98971C4.38793 7.84456 4.69712 7.65599 4.97407 7.43885Z" fill="var(--fill-0, #71717A)"/>
<path d="M3.01489 8.28039C3.20341 8.25792 3.33802 8.08689 3.31555 7.89838C3.29308 7.70986 3.12205 7.57525 2.93353 7.59772C2.64718 7.63185 2.35985 7.61829 2.08012 7.54785C1.89602 7.50149 1.7092 7.61315 1.66284 7.79725C1.61648 7.98135 1.72814 8.16817 1.91224 8.21453C2.28088 8.30736 2.65322 8.32349 3.01489 8.28039Z" fill="var(--fill-0, #71717A)"/>
<path d="M0.910062 7.74504C1.06422 7.85585 1.27901 7.82071 1.38982 7.66656C1.50063 7.51241 1.4655 7.29761 1.31134 7.1868C1.1985 7.10568 1.08709 7.01129 0.978045 6.90224C0.843803 6.768 0.626152 6.768 0.491909 6.90224C0.357667 7.03649 0.357667 7.25414 0.491909 7.38838C0.626324 7.52279 0.765985 7.64147 0.910062 7.74504Z" fill="var(--fill-0, #71717A)"/>
<path d="M5.72743 6.67658C5.61311 6.82816 5.39757 6.85836 5.246 6.74405C5.16231 6.68094 5.11562 6.58697 5.10982 6.48994C4.52294 6.76743 3.77421 6.84879 3.04553 6.74556C1.57476 6.5372 0 5.53018 0 3.55208C0 3.36224 0.153902 3.20833 0.34375 3.20833C0.533598 3.20833 0.6875 3.36224 0.6875 3.55208C0.6875 5.05732 1.86274 5.88363 3.14197 6.06486C3.43752 6.10673 3.72862 6.11165 3.99981 6.08342C3.7392 5.98124 3.48573 5.83437 3.24897 5.65581C3.0974 5.5415 3.06719 5.32595 3.18151 5.17438C3.25301 5.07957 3.36412 5.03225 3.4744 5.03807C3.22325 4.46261 3.15232 3.74484 3.25139 3.04553C3.45975 1.57476 4.46677 0 6.44486 0C6.63471 0 6.78861 0.153902 6.78861 0.34375C6.78861 0.533598 6.63471 0.6875 6.44486 0.6875C4.93962 0.6875 4.11332 1.86274 3.93209 3.14197C3.90062 3.36411 3.89002 3.58375 3.89869 3.7943C3.99569 3.5809 4.12175 3.37352 4.26952 3.17758C4.38383 3.02601 4.59938 2.9958 4.75095 3.11012C4.8583 3.19107 4.90477 3.32279 4.88215 3.44661C5.44596 3.21812 6.13584 3.15608 6.80863 3.25139C8.2794 3.45975 9.85417 4.46677 9.85417 6.44486C9.85417 6.63471 9.70026 6.78861 9.51042 6.78861C9.32057 6.78861 9.16667 6.63471 9.16667 6.44486C9.16667 4.93962 7.99143 4.11332 6.7122 3.93209C6.56394 3.91109 6.4168 3.89938 6.27273 3.89649C6.43637 3.98169 6.59563 4.08346 6.74797 4.19835C6.89955 4.31267 6.92975 4.52821 6.81544 4.67979C6.74394 4.77459 6.63283 4.82192 6.52255 4.81609C6.77369 5.39156 6.84463 6.10933 6.74556 6.80863C6.5372 8.2794 5.53017 9.85417 3.55208 9.85417C3.36224 9.85417 3.20833 9.70026 3.20833 9.51042C3.20833 9.32057 3.36224 9.16667 3.55208 9.16667C5.05732 9.16667 5.88363 7.99143 6.06486 6.7122C6.09633 6.49005 6.10693 6.27042 6.09826 6.05987C6.00126 6.27326 5.8752 6.48065 5.72743 6.67658Z" fill="var(--fill-0, #71717A)"/>
</g>
</svg>
