<svg preserveAspectRatio="none" width="100%" height="100%" overflow="visible" style="display: block;" viewBox="0 0 35 35" fill="none" xmlns="http://www.w3.org/2000/svg">
<g id="Illustrator">
<path id="Vector" d="M28.875 0H6.125C2.74226 0 0 2.74226 0 6.125V28.875C0 32.2577 2.74226 35 6.125 35H28.875C32.2577 35 35 32.2577 35 28.875V6.125C35 2.74226 32.2577 0 28.875 0Z" fill="var(--fill-0, #2E0501)"/>
<g id="Ai">
<path d="M17.7906 21.3709H12.5243L11.2078 25.3673C11.1926 25.4891 11.1094 25.55 10.9581 25.55H8.57461C8.42328 25.55 8.37032 25.4739 8.41571 25.3216L13.1372 11.7565C13.2432 11.5282 13.3112 11.1019 13.3415 10.4777C13.3415 10.3863 13.3945 10.3406 13.5004 10.3406H16.7691C16.8448 10.3406 16.9053 10.3787 16.9507 10.4548L22.217 25.3445C22.2624 25.4815 22.217 25.55 22.0808 25.55H19.4023C19.2964 25.55 19.2207 25.4967 19.1753 25.3901L17.7906 21.3709ZM13.1145 19.1557H17.2004C17.1399 18.9425 16.8221 17.9758 16.2471 16.2554C15.6871 14.5198 15.3164 13.3323 15.1348 12.6928H15.1121C14.9305 13.4693 14.2646 15.6236 13.1145 19.1557Z" fill="var(--fill-0, #F2A032)"/>
<path d="M23.6264 25.3445V14.6111C23.6264 14.4893 23.6869 14.4284 23.808 14.4284H26.3276C26.4487 14.4284 26.5092 14.4893 26.5092 14.6111V25.3673C26.5092 25.4891 26.4487 25.55 26.3276 25.55H23.8307C23.6945 25.55 23.6264 25.4815 23.6264 25.3445ZM26.1914 12.1219C25.919 12.396 25.5483 12.533 25.0791 12.533C24.61 12.533 24.2392 12.396 23.9669 12.1219C23.6945 11.8479 23.5583 11.4749 23.5583 11.0029C23.5583 10.5462 23.702 10.1732 23.9896 9.8839C24.2771 9.59463 24.6478 9.45 25.1018 9.45C25.5558 9.45 25.919 9.59463 26.1914 9.8839C26.4638 10.1732 26.6 10.5462 26.6 11.0029C26.6 11.4749 26.4638 11.8479 26.1914 12.1219Z" fill="var(--fill-0, #F2A032)"/>
</g>
</g>
</svg>
