<svg preserveAspectRatio="none" width="100%" height="100%" overflow="visible" style="display: block;" viewBox="0 0 35 35" fill="none" xmlns="http://www.w3.org/2000/svg">
<g id="JavaScript" clip-path="url(#clip0_11_2231)">
<path id="Vector" d="M6.19792 2.82105e-06H28.8021C29.6162 -0.000784185 30.4225 0.163103 31.1748 0.482285C31.9271 0.801467 32.6107 1.26968 33.1864 1.86012C33.7621 2.45057 34.2186 3.15165 34.5298 3.92325C34.841 4.69485 35.0008 5.52183 35 6.35684V28.6432C35.0008 29.4782 34.841 30.3051 34.5298 31.0767C34.2186 31.8483 33.7621 32.5494 33.1864 33.1399C32.6107 33.7303 31.9271 34.1985 31.1748 34.5177C30.4225 34.8369 29.6162 35.0008 28.8021 35H6.19792C5.38378 35.0008 4.57748 34.8369 3.82517 34.5177C3.07286 34.1985 2.3893 33.7303 1.81362 33.1399C1.23794 32.5494 0.781431 31.8483 0.470228 31.0767C0.159026 30.3051 -0.00076458 29.4782 2.75053e-06 28.6432V6.35684C-0.00076458 5.52183 0.159026 4.69485 0.470228 3.92325C0.781431 3.15165 1.23794 2.45057 1.81362 1.86012C2.3893 1.26968 3.07286 0.801467 3.82517 0.482285C4.57748 0.163103 5.38378 -0.000784185 6.19792 2.82105e-06V2.82105e-06Z" fill="var(--fill-0, #F7DF1E)"/>
<path id="Vector_2" d="M23.5706 27.3861C24.2756 28.5372 25.1928 29.3833 26.815 29.3833C28.1778 29.3833 29.0483 28.7022 29.0483 27.7611C29.0483 26.6333 28.1539 26.2339 26.6539 25.5778L25.8317 25.225C23.4583 24.2139 21.8817 22.9472 21.8817 20.2694C21.8817 17.8028 23.7611 15.925 26.6983 15.925C28.7894 15.925 30.2928 16.6528 31.3761 18.5583L28.815 20.2028C28.2511 19.1917 27.6428 18.7933 26.6983 18.7933C25.735 18.7933 25.1244 19.4044 25.1244 20.2028C25.1244 21.1894 25.7356 21.5889 27.1467 22.2L27.9689 22.5522C30.7633 23.7506 32.3411 24.9722 32.3411 27.7189C32.3411 30.68 30.015 32.3022 26.8911 32.3022C23.8367 32.3022 21.8633 30.8467 20.8978 28.9389L23.5706 27.3861ZM11.9522 27.6711C12.4689 28.5878 12.9389 29.3628 14.0689 29.3628C15.1494 29.3628 15.8311 28.94 15.8311 27.2961V16.1128H19.12V27.3406C19.12 30.7461 17.1233 32.2961 14.2089 32.2961C11.5756 32.2961 10.0506 30.9333 9.275 29.2919L11.9522 27.6711Z" fill="var(--fill-0, black)"/>
</g>
<defs>
<clipPath id="clip0_11_2231">
<rect width="35" height="35" fill="white"/>
</clipPath>
</defs>
</svg>
