<svg preserveAspectRatio="none" width="100%" height="100%" overflow="visible" style="display: block;" viewBox="0 0 10.6224 11.127" fill="none" xmlns="http://www.w3.org/2000/svg">
<g id="g3488">
<path id="path3490" d="M4.69424 8.65825H5.8798C6.82646 8.65825 7.1553 8.45052 7.26703 8.32673C7.4524 8.12119 7.48738 7.68782 7.36825 7.07353C7.23437 6.3858 6.98623 5.89819 6.63059 5.62437C6.26648 5.34406 5.67455 5.202 4.87136 5.202H4.02253L4.69424 8.65825ZM6.72785 11.127H2.4213C2.21872 11.127 2.04457 10.9834 2.00592 10.7845L0.00778443 0.503906C-0.0163388 0.379834 0.0162489 0.25153 0.096589 0.153979C0.177 0.0564284 0.296769 0 0.423169 0H2.66267C2.86532 0 3.03948 0.143611 3.07813 0.342451L3.54282 2.73326H5.11217C5.99964 2.73326 6.74676 2.83003 7.33256 3.02083C7.935 3.21657 8.48927 3.54844 8.97985 4.0072C9.38557 4.38047 9.71976 4.79946 9.97299 5.25265C10.2263 5.70598 10.4083 6.21151 10.5139 6.7552C10.7759 8.10271 10.563 9.18176 9.88122 9.96217C9.20605 10.7351 8.14506 11.127 6.72785 11.127ZM3.5091 4.77879H4.87136C5.77428 4.77879 6.44684 4.94885 6.88875 5.28904C7.33072 5.62931 7.62881 6.19719 7.7837 6.99297C7.9319 7.75702 7.86439 8.29619 7.58119 8.61029C7.29764 8.92438 6.73061 9.08146 5.8798 9.08146H4.34537L3.5091 4.77879V4.77879ZM6.72785 10.7038C8.02338 10.7038 8.96849 10.3638 9.56254 9.68377C10.1565 9.00373 10.3354 8.05454 10.0984 6.83589C10.0008 6.33389 9.83587 5.87491 9.60359 5.45911C9.37104 5.04302 9.06738 4.66255 8.69213 4.31756C8.24493 3.89907 7.74815 3.60084 7.2015 3.42324C6.65485 3.24513 5.95859 3.15647 5.11217 3.15647H3.19388L2.66267 0.423214H0.423169L2.4213 10.7038H6.72785" fill="var(--fill-0, white)"/>
</g>
</svg>
