<svg preserveAspectRatio="none" width="100%" height="100%" overflow="visible" style="display: block;" viewBox="0 0 10.6223 11.127" fill="none" xmlns="http://www.w3.org/2000/svg">
<g id="g3504">
<path id="path3506" d="M4.69417 8.65825H5.87973C6.82639 8.65825 7.15523 8.45052 7.26696 8.32673C7.4524 8.12119 7.48738 7.68782 7.36818 7.0736C7.2343 6.3858 6.98609 5.89819 6.63052 5.62437C6.26641 5.34406 5.67448 5.202 4.87129 5.202H4.02253L4.69417 8.65825ZM6.72778 11.127H2.4213C2.21872 11.127 2.04457 10.9834 2.00592 10.7845L0.00778443 0.503906C-0.0163388 0.379834 0.0162489 0.25153 0.096589 0.153979C0.177 0.0564284 0.296769 0 0.423169 0H2.66268C2.86525 0 3.03948 0.143611 3.07813 0.342451L3.54275 2.73326H5.1121C5.99957 2.73326 6.74669 2.83003 7.33249 3.02083C7.93493 3.21657 8.48934 3.54851 8.97992 4.00734C9.38564 4.38055 9.71969 4.79946 9.97292 5.25265C10.2262 5.70598 10.4082 6.21151 10.5138 6.7552C10.7758 8.10278 10.5629 9.18184 9.88115 9.96224C9.20598 10.7351 8.14506 11.127 6.72778 11.127ZM3.5091 4.77879H4.87129C5.77421 4.77879 6.44677 4.94885 6.88868 5.28904C7.33072 5.62931 7.62874 6.19719 7.78363 6.99297C7.9319 7.75702 7.8644 8.29619 7.58112 8.61029C7.29757 8.92438 6.73054 9.08146 5.87973 9.08146H4.3453L3.5091 4.77879ZM6.72778 10.7038C8.02331 10.7038 8.96842 10.3638 9.56247 9.68377C10.1565 9.00373 10.3353 8.05454 10.0983 6.83589C10.0008 6.33389 9.8358 5.87491 9.60352 5.45911C9.37097 5.04302 9.06731 4.66255 8.69206 4.31756C8.24486 3.89907 7.74808 3.60084 7.20143 3.42324C6.65478 3.24513 5.95852 3.15647 5.1121 3.15647H3.19381L2.66268 0.423214H0.423169L2.4213 10.7038H6.72778" fill="var(--fill-0, white)"/>
</g>
</svg>
