<svg preserveAspectRatio="none" width="100%" height="100%" overflow="visible" style="display: block;" viewBox="0 0 35 35" fill="none" xmlns="http://www.w3.org/2000/svg">
<g id="Git">
<path id="Vector" d="M6.19792 2.82105e-06H28.8021C29.6162 -0.000784185 30.4225 0.163103 31.1748 0.482285C31.9271 0.801467 32.6107 1.26968 33.1864 1.86012C33.7621 2.45057 34.2186 3.15165 34.5298 3.92325C34.841 4.69485 35.0008 5.52183 35 6.35684V28.6432C35.0008 29.4782 34.841 30.3051 34.5298 31.0767C34.2186 31.8483 33.7621 32.5494 33.1864 33.1399C32.6107 33.7303 31.9271 34.1985 31.1748 34.5177C30.4225 34.8369 29.6162 35.0008 28.8021 35H6.19792C5.38378 35.0008 4.57748 34.8369 3.82517 34.5177C3.07286 34.1985 2.3893 33.7303 1.81362 33.1399C1.23794 32.5494 0.781431 31.8483 0.470228 31.0767C0.159026 30.3051 -0.00076458 29.4782 2.75053e-06 28.6432V6.35684C-0.00076458 5.52183 0.159026 4.69485 0.470228 3.92325C0.781431 3.15165 1.23794 2.45057 1.81362 1.86012C2.3893 1.26968 3.07286 0.801467 3.82517 0.482285C4.57748 0.163103 5.38378 -0.000784185 6.19792 2.82105e-06V2.82105e-06Z" fill="var(--fill-0, #F0F0F0)"/>
<path id="Vector_2" d="M30.1301 16.3308L18.6684 4.87008C18.0089 4.20997 16.9384 4.20997 16.2781 4.87008L13.8982 7.2503L16.917 10.2692C17.6189 10.0323 18.4233 10.1912 18.9824 10.7504C19.5445 11.3132 19.7022 12.1245 19.4593 12.8287L22.3689 15.7384C23.0728 15.4958 23.885 15.6526 24.4471 16.2157C25.2329 17.0013 25.2329 18.2743 24.4471 19.0602C23.6611 19.8463 22.3882 19.8463 21.6018 19.0602C21.0109 18.4688 20.8647 17.6006 21.164 16.8725L18.4505 14.1589L18.4503 21.2998C18.6418 21.3946 18.8226 21.5212 18.9823 21.6802C19.7679 22.4657 19.7679 23.7385 18.9823 24.5254C18.1965 25.3109 16.9229 25.3109 16.1379 24.5254C15.3522 23.7386 15.3522 22.4658 16.1379 21.6802C16.3321 21.4864 16.5568 21.3396 16.7965 21.2413V14.034C16.5566 13.9361 16.3322 13.7905 16.1378 13.5951C15.5426 13.0004 15.3993 12.1269 15.7045 11.396L12.7285 8.41946L4.87021 16.2779C4.20993 16.9385 4.20993 18.009 4.87021 18.6692L16.3312 30.1299C16.9911 30.79 18.0612 30.79 18.7219 30.1299L30.1299 18.7233C30.79 18.0629 30.79 16.992 30.1299 16.3318" fill="var(--fill-0, #F05133)"/>
</g>
</svg>
