<svg preserveAspectRatio="none" width="100%" height="100%" overflow="visible" style="display: block;" viewBox="0 0 35 35" fill="none" xmlns="http://www.w3.org/2000/svg">
<g id="Python" clip-path="url(#clip0_11_2127)">
<path id="Vector" d="M6.19792 2.82105e-06H28.8021C29.6162 -0.000784185 30.4225 0.163103 31.1748 0.482285C31.9271 0.801467 32.6107 1.26968 33.1864 1.86012C33.7621 2.45057 34.2186 3.15165 34.5298 3.92325C34.841 4.69485 35.0008 5.52183 35 6.35684V28.6432C35.0008 29.4782 34.841 30.3051 34.5298 31.0767C34.2186 31.8483 33.7621 32.5494 33.1864 33.1399C32.6107 33.7303 31.9271 34.1985 31.1748 34.5177C30.4225 34.8369 29.6162 35.0008 28.8021 35H6.19792C5.38378 35.0008 4.57748 34.8369 3.82517 34.5177C3.07286 34.1985 2.3893 33.7303 1.81362 33.1399C1.23794 32.5494 0.781431 31.8483 0.470228 31.0767C0.159026 30.3051 -0.000764581 29.4782 2.75053e-06 28.6432V6.35684C-0.000764581 5.52183 0.159026 4.69485 0.470228 3.92325C0.781431 3.15165 1.23794 2.45057 1.81362 1.86012C2.3893 1.26968 3.07286 0.801467 3.82517 0.482285C4.57748 0.163103 5.38378 -0.000784185 6.19792 2.82105e-06V2.82105e-06Z" fill="var(--fill-0, #000B1D)"/>
<g id="Python_2">
<path id="path8615" d="M17.4507 5.775C11.384 5.775 11.7629 8.40588 11.7629 8.40588L11.7696 11.1314H17.5589V11.9498H9.47015C9.47015 11.9498 5.58809 11.5095 5.58809 17.6308C5.58809 23.7522 8.97644 23.5351 8.97644 23.5351H10.9986V20.6946C10.9986 20.6946 10.8896 17.3062 14.3329 17.3062C17.7761 17.3062 20.0748 17.3062 20.0748 17.3062C20.0748 17.3062 23.3008 17.3584 23.3008 14.1884C23.3008 11.0184 23.3008 8.94693 23.3008 8.94693C23.3008 8.94693 23.7906 5.775 17.4507 5.775ZM14.2585 7.60782C14.8345 7.60782 15.3 8.07336 15.3 8.64935C15.3 9.22534 14.8345 9.69088 14.2585 9.69088C13.6825 9.69088 13.217 9.22534 13.217 8.64935C13.217 8.07336 13.6825 7.60782 14.2585 7.60782Z" fill="url(#paint0_linear_11_2127)"/>
<path id="path8620" d="M17.623 29.5481C23.6897 29.5481 23.3108 26.9172 23.3108 26.9172L23.3041 24.1917H17.5148V23.3733H25.6035C25.6035 23.3733 29.4856 23.8136 29.4856 17.6922C29.4856 11.5709 26.0972 11.788 26.0972 11.788H24.0751V14.6285C24.0751 14.6285 24.1841 18.0169 20.7408 18.0169C17.2976 18.0169 14.9989 18.0169 14.9989 18.0169C14.9989 18.0169 11.7728 17.9647 11.7728 21.1347C11.7728 24.3047 11.7728 26.3762 11.7728 26.3762C11.7728 26.3762 11.283 29.5481 17.623 29.5481ZM20.8152 27.7153C20.2392 27.7153 19.7737 27.2497 19.7737 26.6737C19.7737 26.0977 20.2392 25.6322 20.8152 25.6322C21.3912 25.6322 21.8567 26.0977 21.8567 26.6737C21.8567 27.2497 21.3912 27.7153 20.8152 27.7153Z" fill="url(#paint1_linear_11_2127)"/>
</g>
</g>
<defs>
<linearGradient id="paint0_linear_11_2127" x1="7.88469" y1="7.85298" x2="19.7013" y2="19.7091" gradientUnits="userSpaceOnUse">
<stop stop-color="#387EB8"/>
<stop offset="1" stop-color="#366994"/>
</linearGradient>
<linearGradient id="paint1_linear_11_2127" x1="15.1538" y1="15.3953" x2="27.8449" y2="27.5541" gradientUnits="userSpaceOnUse">
<stop stop-color="#FFE052"/>
<stop offset="1" stop-color="#FFC331"/>
</linearGradient>
<clipPath id="clip0_11_2127">
<rect width="35" height="35" fill="white"/>
</clipPath>
</defs>
</svg>
