<svg preserveAspectRatio="none" width="100%" height="100%" overflow="visible" style="display: block;" viewBox="0 0 35 35" fill="none" xmlns="http://www.w3.org/2000/svg">
<g id="Premier Pro">
<path id="Vector" d="M28.875 0H6.125C2.74226 0 0 2.74226 0 6.125V28.875C0 32.2577 2.74226 35 6.125 35H28.875C32.2577 35 35 32.2577 35 28.875V6.125C35 2.74226 32.2577 0 28.875 0Z" fill="var(--fill-0, #000058)"/>
<g id="Pr">
<path d="M8.575 24.8659V10.1796C8.575 10.0735 8.62066 10.0205 8.71199 10.0205C9.68611 9.99016 11.056 9.975 12.8216 9.975C14.8307 9.975 16.3071 10.4373 17.2508 11.3618C18.2097 12.2711 18.6892 13.4154 18.6892 14.7946C18.6892 16.4618 18.1032 17.7198 16.9312 18.5685C15.7744 19.4021 14.3056 19.8189 12.5248 19.8189C12.3117 19.8189 12.0605 19.8189 11.7714 19.8189C11.4974 19.8037 11.3528 19.7961 11.3376 19.7961V24.8659C11.3376 24.972 11.2767 25.025 11.1549 25.025H8.73482C8.62827 25.025 8.575 24.972 8.575 24.8659ZM11.3376 12.0893V17.6819C11.5507 17.7122 11.9921 17.7273 12.6618 17.7273C13.6207 17.7273 14.4045 17.5076 15.0134 17.0681C15.6222 16.6134 15.9266 15.8707 15.9266 14.8401C15.9266 13.9611 15.6526 13.279 15.1047 12.794C14.572 12.2939 13.8109 12.0438 12.8216 12.0438C12.0149 12.0438 11.5202 12.059 11.3376 12.0893Z" fill="var(--fill-0, #9999F9)"/>
<path d="M20.1464 13.9535H22.2926C22.4143 13.9535 22.4981 14.0141 22.5437 14.1353C22.6655 14.4385 22.7416 14.878 22.772 15.4539C23.6548 14.3172 24.8192 13.7489 26.2652 13.7489C26.3717 13.7489 26.425 13.8019 26.425 13.908V16.2042C26.425 16.3254 26.3641 16.3784 26.2424 16.3633C24.9181 16.2875 23.8755 16.6285 23.1145 17.3863C22.9775 17.5227 22.909 17.7046 22.909 17.9319V24.8659C22.909 24.972 22.8481 25.025 22.7264 25.025H20.3291C20.1921 25.025 20.1236 24.9644 20.1236 24.8431V17.159C20.1236 15.9313 20.0856 14.9159 20.0095 14.1126C19.9942 14.0065 20.0399 13.9535 20.1464 13.9535Z" fill="var(--fill-0, #9999F9)"/>
</g>
</g>
</svg>
