<svg preserveAspectRatio="none" width="100%" height="100%" overflow="visible" style="display: block;" viewBox="0 0 35 35" fill="none" xmlns="http://www.w3.org/2000/svg">
<g id="Photoshop">
<path id="Vector" d="M28.875 0H6.125C2.74226 0 0 2.74226 0 6.125V28.875C0 32.2577 2.74226 35 6.125 35H28.875C32.2577 35 35 32.2577 35 28.875V6.125C35 2.74226 32.2577 0 28.875 0Z" fill="var(--fill-0, #001E36)"/>
<g id="Ps">
<path d="M7.875 24.8139V10.0044C7.875 9.89843 7.92808 9.84543 8.03424 9.84543C9.18685 9.81515 10.6504 9.8 12.4248 9.8C14.5177 9.8 16.0494 10.2694 17.02 11.2083C18.0058 12.1471 18.4987 13.3055 18.4987 14.6835C18.4987 16.3946 17.8921 17.6666 16.6788 18.4994C15.4655 19.3323 13.9413 19.7487 12.1063 19.7487H10.7641V24.7912C10.7641 24.9123 10.7034 24.9729 10.5821 24.9729H8.05699C7.93566 24.9729 7.875 24.9199 7.875 24.8139ZM10.7641 11.9805V17.5681C10.9764 17.5984 11.4693 17.6136 12.2428 17.6136C13.2589 17.6136 14.0778 17.394 14.6996 16.9549C15.3366 16.5006 15.6551 15.7662 15.6551 14.7516C15.6551 13.8582 15.3745 13.1692 14.8134 12.6847C14.2674 12.2001 13.4712 11.9578 12.4248 11.9578C12.1669 11.9578 11.9091 11.9654 11.6513 11.9805C11.4086 11.9805 11.2039 11.9805 11.0371 11.9805C10.8854 11.9805 10.7944 11.9805 10.7641 11.9805Z" fill="var(--fill-0, #31A8FE)"/>
<path d="M26.4355 16.5233C25.5863 15.9933 24.699 15.7283 23.7739 15.7283C23.2431 15.7283 22.8488 15.8267 22.591 16.0236C22.3483 16.2205 22.227 16.4552 22.227 16.7277C22.227 17.0003 22.3332 17.2426 22.5455 17.4546C22.7578 17.6514 23.2052 17.8861 23.8877 18.1587C25.1464 18.6433 26.0261 19.1581 26.5265 19.7032C27.0422 20.2332 27.3 20.9222 27.3 21.7702C27.3 22.7999 26.9057 23.6327 26.1171 24.2687C25.3436 24.8896 24.2896 25.2 22.955 25.2C21.6204 25.2 20.5284 24.9577 19.6791 24.4732C19.5881 24.4429 19.5427 24.3672 19.5427 24.246V22.1336C19.5427 22.0731 19.5578 22.0352 19.5881 22.0201C19.6336 21.9898 19.6716 21.9898 19.7019 22.0201C20.6877 22.7469 21.7417 23.1103 22.864 23.1103C23.3948 23.1103 23.7967 23.0195 24.0697 22.8378C24.3578 22.6409 24.5019 22.3911 24.5019 22.0882C24.5019 21.7702 24.3881 21.5052 24.1607 21.2932C23.9332 21.0661 23.4858 20.8238 22.8185 20.5664C21.6052 20.097 20.7559 19.5973 20.2706 19.0673C19.8005 18.5221 19.5654 17.8407 19.5654 17.023C19.5654 16.0842 19.9218 15.2968 20.6346 14.6608C21.3474 14.0248 22.3635 13.7068 23.6829 13.7068C24.9114 13.7068 25.8592 13.8734 26.5265 14.2065C26.6024 14.2519 26.6403 14.3503 26.6403 14.5018V16.387C26.6403 16.5687 26.572 16.6142 26.4355 16.5233Z" fill="var(--fill-0, #31A8FE)"/>
</g>
</g>
</svg>
