<svg preserveAspectRatio="none" width="100%" height="100%" overflow="visible" style="display: block;" viewBox="0 0 35 35" fill="none" xmlns="http://www.w3.org/2000/svg">
<g id="Acrobat Reader">
<path id="Vector" d="M28.875 0H6.125C2.74226 0 0 2.74226 0 6.125V28.875C0 32.2577 2.74226 35 6.125 35H28.875C32.2577 35 35 32.2577 35 28.875V6.125C35 2.74226 32.2577 0 28.875 0Z" fill="var(--fill-0, #A52A11)"/>
<path id="Vector_2" fill-rule="evenodd" clip-rule="evenodd" d="M16.0311 5.62388C13.0636 6.11887 14.3162 11.0538 14.9988 12.8888L15.3603 13.7816C15.4162 13.9043 15.4582 13.9406 15.4107 14.0755C14.664 16.1958 13.4857 19.2824 12.4581 21.151C12.3581 21.3329 12.2719 21.5137 12.1675 21.6878C11.9684 22.0194 12.0787 21.9187 11.7001 22.0733C9.81154 22.8442 6.68554 24.343 5.61599 26.0653C4.44632 27.9489 6.27465 29.6395 8.35561 29.1346C10.2407 28.6773 11.8538 26.6186 12.8519 25.2675C13.4472 24.4617 13.971 23.5758 14.4828 22.7097C14.5771 22.55 14.7594 22.5439 15.0648 22.4393C16.6004 21.9134 18.7821 21.3765 20.3951 21.0711C20.7576 21.0024 20.6455 20.9724 20.9685 21.2402C22.0266 22.1174 23.384 22.9515 24.7343 23.3541C25.6231 23.6192 26.6547 23.8287 27.6748 23.7093C28.6662 23.5932 29.4039 23.1509 29.6643 22.3359C29.8083 21.8856 29.7637 21.328 29.5839 20.9297C28.5442 18.6269 23.6871 19.0759 21.5781 19.3841C21.0371 19.4631 21.2624 19.5146 20.7816 19.0429C20.4375 18.7053 20.2939 18.5198 19.9911 18.1758C19.7119 17.8587 19.3099 17.3361 19.0658 16.994C18.7098 16.4951 18.3879 16.0209 18.0614 15.4894C17.9106 15.2438 17.7801 15.0923 17.835 14.928C18.4397 13.1168 18.8476 11.4304 18.9482 9.35263C19.0105 8.06588 18.5666 6.48131 17.4202 5.86566C17.0561 5.67014 16.5031 5.54516 16.0311 5.62388V5.62388ZM15.5351 20.7325C15.5786 20.7362 17.1809 20.28 17.4003 20.2246C17.998 20.0735 18.7654 19.859 19.38 19.7783C19.3169 19.6424 19.1892 19.5644 19.0952 19.4418L17.4229 17.279C17.3335 17.1397 17.2624 17.0023 17.1626 16.8928C17.1471 16.9133 17.1586 16.8903 17.1332 16.9398L16.9652 17.3882C16.9008 17.563 16.8374 17.7168 16.7731 17.8831L15.9688 19.8196C15.889 19.9944 15.6078 20.6465 15.5351 20.7325ZM16.1873 12.5274C16.2928 12.3337 16.509 11.3917 16.576 11.1027C16.7623 10.3 17.0674 8.6628 16.9947 7.86571C16.9475 7.34845 16.7616 6.77052 16.1889 6.8275C15.2874 6.9172 15.3339 8.7848 15.4339 9.62646C15.4968 10.1559 15.5997 10.6557 15.7309 11.1503C15.7923 11.3819 16.0891 12.4073 16.1873 12.5274ZM11.3757 23.5775C11.1756 23.6314 10.7931 23.8385 10.5979 23.93C9.88755 24.2632 9.01107 24.7451 8.38694 25.1571C7.91719 25.4673 5.8701 26.8549 6.68244 27.6912C7.64438 28.6816 9.9482 25.6755 10.4611 24.9497C10.6924 24.6224 11.2024 23.9078 11.3757 23.5775V23.5775ZM22.0644 20.5585C22.4082 20.8135 22.7351 21.0677 23.1539 21.3141C23.8575 21.7282 25.0211 22.2554 25.8453 22.3743C27.5083 22.6142 27.877 21.2638 27.1108 20.7166C26.222 20.0817 22.2825 20.3995 22.0644 20.5585V20.5585Z" fill="var(--fill-0, white)"/>
</g>
</svg>
