<svg preserveAspectRatio="none" width="100%" height="100%" overflow="visible" style="display: block;" viewBox="0 0 10.199 10.7038" fill="none" xmlns="http://www.w3.org/2000/svg">
<g id="g3500">
<path id="path3502" d="M4.65973 4.77879C5.51074 4.77879 6.14606 4.93573 6.54804 5.2451C6.94572 5.55122 7.22038 6.08172 7.36442 6.82178C7.49865 7.51346 7.44751 7.99641 7.21241 8.25704C6.9721 8.52324 6.45253 8.65825 5.66818 8.65825H4.30818L3.55422 4.77879H4.65973ZM0.211611 0C0.148482 0 0.0885264 0.0282145 0.0483917 0.0770251C0.00818635 0.125765 -0.00817822 0.189952 0.00388337 0.251953L2.00202 10.5326C2.02141 10.632 2.10846 10.7038 2.20981 10.7038H6.51623C7.86973 10.7038 8.87705 10.3363 9.51032 9.6114C10.1469 8.88276 10.3434 7.86416 10.0946 6.58394C9.99314 6.0624 9.81899 5.57803 9.5767 5.14438C9.33413 4.71023 9.01354 4.30853 8.62369 3.95021C8.15703 3.51345 7.62886 3.19675 7.05526 3.01039C6.49076 2.8265 5.7658 2.73326 4.90054 2.73326H3.15669L2.65892 0.171261C2.63952 0.0718054 2.55248 0 2.45112 0H0.211611Z" fill="var(--fill-0, black)"/>
</g>
</svg>
