<svg preserveAspectRatio="none" width="100%" height="100%" overflow="visible" style="display: block;" viewBox="0 0 27.825 21" fill="none" xmlns="http://www.w3.org/2000/svg">
<path id="256" d="M24.9609 3.27829C23.9942 2.23517 22.8211 1.40498 21.5162 0.840604C20.2113 0.276229 18.8033 -0.00996075 17.3818 0.000264653C14.5793 0.000264653 11.7275 1.20236 9.90428 3.14729C9.56993 3.10942 9.23371 3.09039 8.89723 3.09027C3.40152 3.09027 0 7.71371 0 12.0043C0.0184551 14.319 0.91001 16.5412 2.49609 18.2259C3.31462 19.1046 4.30571 19.8046 5.40722 20.2819C6.50873 20.7593 7.69689 21.0037 8.89723 21H17.3818C23.1408 21 27.825 16.2748 27.825 10.4662C27.8018 7.79611 26.7799 5.2316 24.9609 3.27829V3.27829ZM8.73862 19.4773C7.542 19.4829 6.36197 19.1971 5.30028 18.6446C4.23859 18.092 3.32708 17.2894 2.64434 16.3058C1.9616 15.3222 1.52811 14.1872 1.38124 12.9986C1.23437 11.81 1.37853 10.6035 1.80129 9.48309C2.22405 8.36267 2.91272 7.36196 3.80794 6.56724C4.70317 5.77251 5.77807 5.20761 6.94 4.92124C8.10193 4.63487 9.31601 4.63562 10.4776 4.92342C11.6392 5.21122 12.7134 5.77744 13.6076 6.57326L13.643 6.60409L16.6996 9.74341C16.9373 9.99494 17.0663 10.3301 17.0588 10.6762C17.0513 11.0222 16.9079 11.3515 16.6596 11.5925C16.4113 11.8335 16.0782 11.9669 15.7323 11.9638C15.3864 11.9606 15.0557 11.8213 14.8118 11.5758L11.7844 8.46579C11.1021 7.87809 10.2656 7.49855 9.3743 7.37216C8.48296 7.24577 7.57411 7.37784 6.75548 7.7527C5.93686 8.12757 5.24281 8.72951 4.7556 9.48716C4.2684 10.2448 4.00849 11.1264 4.00668 12.0274C4.00668 14.615 6.20866 16.805 8.81561 16.805H9.42077V16.8219C10.2877 18.0194 12.7022 19.485 12.7022 19.485L8.73862 19.4773ZM23.8553 16.8204C23.0396 17.6743 22.0599 18.3543 20.9749 18.8196C19.89 19.2849 18.7223 19.526 17.5419 19.5282C15.2783 19.5282 12.967 18.5156 11.2008 16.7541L7.16028 12.7009C6.97942 12.5161 6.85682 12.2822 6.80773 12.0283C6.75864 11.7743 6.78521 11.5115 6.88416 11.2726C6.9831 11.0336 7.15005 10.8291 7.36423 10.6843C7.57841 10.5396 7.83038 10.4611 8.08881 10.4585C8.26445 10.4575 8.43848 10.4921 8.60043 10.5602C8.76238 10.6282 8.9089 10.7284 9.03119 10.8546L13.044 14.8816C14.3175 16.1592 15.9528 16.8851 17.5296 16.8851C18.3616 16.8833 19.1846 16.7119 19.9483 16.3815C20.7121 16.0511 21.4006 15.5686 21.9721 14.9633C23.1566 13.7444 23.8195 12.1111 23.8199 10.4107C23.8199 8.7349 23.1547 7.12771 21.9707 5.94272C20.7867 4.75773 19.1809 4.09201 17.5065 4.09201C16.1792 4.09201 15.0828 4.34939 14.0126 5.11225C14.0003 5.10301 13.7046 4.91036 13.3828 4.71156C13.1795 4.58826 12.9609 4.46497 12.7884 4.37096C12.616 4.27695 12.0477 3.99646 11.7213 3.86238C11.6397 3.82848 11.535 3.78995 11.4903 3.77454H11.4996C13.1626 2.21798 15.2321 1.46282 17.505 1.46282C19.8762 1.46485 22.1497 2.4083 23.8267 4.08611C25.5036 5.76393 26.4471 8.03907 26.4499 10.4123C26.4552 12.8061 25.5238 15.1068 23.8553 16.8219V16.8204Z" fill="var(--fill-0, white)"/>
</svg>
