<svg preserveAspectRatio="none" width="100%" height="100%" overflow="visible" style="display: block;" viewBox="0 0 35 35" fill="none" xmlns="http://www.w3.org/2000/svg">
<g id="Lightroom">
<path id="Vector" d="M28.875 0H6.125C2.74226 0 0 2.74226 0 6.125V28.875C0 32.2577 2.74226 35 6.125 35H28.875C32.2577 35 35 32.2577 35 28.875V6.125C35 2.74226 32.2577 0 28.875 0Z" fill="var(--fill-0, #071D34)"/>
<g id="Lr">
<path d="M17.6508 25.025H9.30467C9.16822 25.025 9.1 24.949 9.1 24.797V10.1574C9.1 10.0358 9.16064 9.975 9.28193 9.975H11.7153C11.8062 9.975 11.8517 10.0282 11.8517 10.1346V22.8815H18.0828C18.2193 22.8815 18.2723 22.9423 18.242 23.0639L17.8782 24.8426C17.8478 24.9642 17.772 25.025 17.6508 25.025Z" fill="var(--fill-0, #55A5F9)"/>
<path d="M19.4711 13.9199H21.6088C21.7301 13.9199 21.8135 13.9807 21.859 14.1023C21.9803 14.4064 22.0561 14.8472 22.0864 15.4249C22.9657 14.2848 24.1255 13.7147 25.5658 13.7147C25.6719 13.7147 25.725 13.7679 25.725 13.8743V16.1774C25.725 16.299 25.6644 16.3522 25.5431 16.337C24.2241 16.261 23.1855 16.6031 22.4275 17.3632C22.2911 17.5 22.2228 17.6824 22.2228 17.9105V24.8654C22.2228 24.9718 22.1622 25.025 22.0409 25.025H19.6531C19.5166 25.025 19.4484 24.9642 19.4484 24.8426V17.1352C19.4484 15.9038 19.4105 14.8853 19.3347 14.0795C19.3195 13.9731 19.365 13.9199 19.4711 13.9199Z" fill="var(--fill-0, #55A5F9)"/>
</g>
</g>
</svg>
