<svg preserveAspectRatio="none" width="100%" height="100%" overflow="visible" style="display: block;" viewBox="0 0 9.59786 11.127" fill="none" xmlns="http://www.w3.org/2000/svg">
<g id="g3496">
<path id="path3498" d="M4.64324 11.127H2.42137C2.21872 11.127 2.04457 10.9834 2.00592 10.7845L0.00778372 0.503906C-0.0163395 0.379834 0.0162481 0.25153 0.0966588 0.153979C0.177069 0.0564284 0.296839 0 0.423239 0H2.64511C2.84769 0 3.02191 0.14361 3.06057 0.34245L4.13856 5.88973H5.56543C6.22585 5.88973 6.36445 5.74865 6.37003 5.74259C6.41009 5.69949 6.46278 5.49988 6.37581 5.05268L5.49193 0.503906C5.46781 0.379834 5.50039 0.25153 5.5808 0.153979C5.66121 0.0564284 5.78098 0 5.90738 0H8.16452C8.3671 0 8.54132 0.14361 8.57998 0.34245L9.50957 5.12653C9.72773 6.24953 9.5411 7.09194 8.95509 7.63055C8.39588 8.14412 7.45917 8.39374 6.09141 8.39374H4.6254L5.0587 10.623C5.08275 10.7471 5.05023 10.8755 4.96982 10.9729C4.88941 11.0705 4.76964 11.127 4.64324 11.127ZM4.64324 10.7038L4.11204 7.97053H6.09141C7.33686 7.97053 8.19591 7.75314 8.66871 7.31892C9.14151 6.88442 9.28315 6.1804 9.09418 5.20722L8.16452 0.423214H5.90738L6.79126 4.97192C6.89185 5.48937 6.85489 5.84233 6.68024 6.03052C6.50553 6.2187 6.13387 6.31294 5.56543 6.31294H3.78962L2.64511 0.423214H0.423239L2.42137 10.7038H4.64324Z" fill="var(--fill-0, white)"/>
</g>
</svg>
