<svg preserveAspectRatio="none" width="100%" height="100%" overflow="visible" style="display: block;" viewBox="0 0 35 35" fill="none" xmlns="http://www.w3.org/2000/svg">
<g id="css" clip-path="url(#clip0_11_2141)">
<path id="Vector" d="M6.19792 2.82105e-06H28.8021C29.6162 -0.000784185 30.4225 0.163103 31.1748 0.482285C31.9271 0.801467 32.6107 1.26968 33.1864 1.86012C33.7621 2.45057 34.2186 3.15165 34.5298 3.92325C34.841 4.69485 35.0008 5.52183 35 6.35684V28.6432C35.0008 29.4782 34.841 30.3051 34.5298 31.0767C34.2186 31.8483 33.7621 32.5494 33.1864 33.1399C32.6107 33.7303 31.9271 34.1985 31.1748 34.5177C30.4225 34.8369 29.6162 35.0008 28.8021 35H6.19792C5.38378 35.0008 4.57748 34.8369 3.82517 34.5177C3.07286 34.1985 2.3893 33.7303 1.81362 33.1399C1.23794 32.5494 0.781431 31.8483 0.470228 31.0767C0.159026 30.3051 -0.000764581 29.4782 2.75053e-06 28.6432V6.35684C-0.000764581 5.52183 0.159026 4.69485 0.470228 3.92325C0.781431 3.15165 1.23794 2.45057 1.81362 1.86012C2.3893 1.26968 3.07286 0.801467 3.82517 0.482285C4.57748 0.163103 5.38378 -0.000784185 6.19792 2.82105e-06V2.82105e-06Z" fill="var(--fill-0, #2965F1)"/>
<g id="Group 2">
<path id="Vector_2" d="M8.56714 14.4283L8.91153 18.2714H17.5115V14.4283H8.56714ZM7.875 6.65L8.22432 10.493H17.5115V6.65H7.875V6.65ZM17.5115 24.4091L17.4946 24.4136L13.2147 23.2579L12.9411 20.1929H9.08325L9.62161 26.2271L17.4938 28.4123L17.5115 28.4075V24.4091Z" fill="var(--fill-0, #EBEBEB)"/>
<path id="Vector_3" d="M26.4313 14.4283L27.125 6.65H17.4983V10.493H22.9134L22.5637 14.4283H17.4983V18.2714H22.2305L21.7843 23.2555L17.4981 24.4123V28.4105L25.3766 26.2271L25.4343 25.5778L26.3376 15.4603L26.4313 14.4283V14.4283Z" fill="var(--fill-0, white)"/>
</g>
</g>
<defs>
<clipPath id="clip0_11_2141">
<rect width="35" height="35" fill="white"/>
</clipPath>
</defs>
</svg>
