<svg preserveAspectRatio="none" width="100%" height="100%" overflow="visible" style="display: block;" viewBox="0 0 35 35" fill="none" xmlns="http://www.w3.org/2000/svg">
<g id="Blender">
<path id="Vector" d="M6.19792 2.82105e-06H28.8021C29.6162 -0.000784185 30.4225 0.163103 31.1748 0.482285C31.9271 0.801467 32.6107 1.26968 33.1864 1.86012C33.7621 2.45057 34.2186 3.15165 34.5298 3.92325C34.841 4.69485 35.0008 5.52183 35 6.35684V28.6432C35.0008 29.4782 34.841 30.3051 34.5298 31.0767C34.2186 31.8483 33.7621 32.5494 33.1864 33.1399C32.6107 33.7303 31.9271 34.1985 31.1748 34.5177C30.4225 34.8369 29.6162 35.0008 28.8021 35H6.19792C5.38378 35.0008 4.57748 34.8369 3.82517 34.5177C3.07286 34.1985 2.3893 33.7303 1.81362 33.1399C1.23794 32.5494 0.781431 31.8483 0.470228 31.0767C0.159026 30.3051 -0.00076458 29.4782 2.75053e-06 28.6432V6.35684C-0.00076458 5.52183 0.159026 4.69485 0.470228 3.92325C0.781431 3.15165 1.23794 2.45057 1.81362 1.86012C2.3893 1.26968 3.07286 0.801467 3.82517 0.482285C4.57748 0.163103 5.38378 -0.000784185 6.19792 2.82105e-06V2.82105e-06Z" fill="var(--fill-0, #000B1D)"/>
<g id="Blender_2">
<path id="Vector_2" d="M14.523 18.7088C14.6247 16.8939 15.5135 15.2949 16.8543 14.1614C18.1692 13.0481 19.939 12.3677 21.87 12.3677C23.7991 12.3677 25.569 13.0481 26.8848 14.1614C28.2246 15.2949 29.1134 16.8939 29.2161 18.7069C29.3178 20.5717 28.5682 22.304 27.2534 23.5882C25.9126 24.8944 24.0055 25.714 21.87 25.714C19.7345 25.714 17.8236 24.8944 16.4838 23.5882C15.168 22.304 14.4203 20.5717 14.523 18.7088V18.7088Z" fill="var(--fill-0, white)"/>
<path id="Vector_3" d="M18.0947 18.8728C18.1469 17.9416 18.6029 17.1212 19.2909 16.5396C19.9656 15.9683 20.8737 15.6192 21.8645 15.6192C22.8543 15.6192 23.7624 15.9683 24.4376 16.5396C25.1251 17.1212 25.5811 17.9416 25.6338 18.8719C25.686 19.8287 25.3014 20.7176 24.6267 21.3765C23.9387 22.0467 22.9602 22.4673 21.8645 22.4673C20.7688 22.4673 19.7883 22.0467 19.1008 21.3765C18.4256 20.7176 18.042 19.8287 18.0947 18.8728V18.8728Z" fill="var(--fill-0, #265787)"/>
<path id="Vector_4" d="M12.0916 20.7589C12.098 21.1233 12.2142 21.8315 12.3885 22.3845C12.7549 23.5551 13.3764 24.638 14.2412 25.5924C15.1286 26.5734 16.2214 27.3613 17.4836 27.9207C18.8103 28.5082 20.2477 28.8076 21.7409 28.8052C23.2316 28.8032 24.6691 28.4979 25.9958 27.9059C27.258 27.3411 28.3497 26.5497 29.2357 25.5683C30.0999 24.6099 30.7205 23.5251 31.0878 22.3545C31.2725 21.7631 31.3892 21.1627 31.436 20.5605C31.4818 19.9671 31.4626 19.3727 31.3784 18.7788C31.2139 17.6215 30.8135 16.5356 30.197 15.5458C29.6331 14.6362 28.9062 13.8399 28.042 13.1697L28.0439 13.1682L19.3219 6.47131C19.314 6.4654 19.3076 6.45901 19.2993 6.45359C18.727 6.01432 17.7648 6.0158 17.1354 6.45606C16.4991 6.90124 16.4262 7.63745 16.9926 8.10183L16.9901 8.1043L20.6279 11.0625L9.54015 11.0743H9.52538C8.6089 11.0753 7.72789 11.6766 7.55356 12.4364C7.3743 13.2106 7.99677 13.8527 8.94969 13.8562L8.94821 13.8596L14.5682 13.8488L4.53969 21.5464C4.52688 21.5557 4.51309 21.5656 4.50127 21.5749C3.55525 22.2993 3.24944 23.5039 3.84532 24.2662C4.45006 25.0413 5.73588 25.0428 6.69175 24.2706L12.165 19.7913C12.165 19.7913 12.0852 20.396 12.0916 20.7589V20.7589ZM26.1558 22.7839C25.0281 23.9328 23.4492 24.5843 21.7409 24.5878C20.0301 24.5907 18.4512 23.9451 17.3235 22.7982C16.7724 22.2393 16.3676 21.5961 16.118 20.9111C15.8732 20.2379 15.7782 19.5234 15.8412 18.8024C15.9008 18.0977 16.1106 17.4255 16.4455 16.8173C16.7744 16.2195 17.2275 15.6793 17.7869 15.2223C18.8831 14.3289 20.2788 13.8453 21.7384 13.8434C23.1996 13.8414 24.5942 14.3206 25.6914 15.2109C26.2499 15.666 26.7025 16.2042 27.0314 16.8011C27.3678 17.4088 27.5761 18.0785 27.6381 18.7852C27.7002 19.5051 27.6051 20.2187 27.3604 20.8924C27.1102 21.5794 26.7069 22.2225 26.1558 22.7839V22.7839Z" fill="var(--fill-0, #EA7600)"/>
</g>
</g>
</svg>
