<svg preserveAspectRatio="none" width="100%" height="100%" overflow="visible" style="display: block;" viewBox="0 0 35 35" fill="none" xmlns="http://www.w3.org/2000/svg">
<g id="After Effects">
<path id="Vector" d="M28.875 0H6.125C2.74226 0 0 2.74226 0 6.125V28.875C0 32.2577 2.74226 35 6.125 35H28.875C32.2577 35 35 32.2577 35 28.875V6.125C35 2.74226 32.2577 0 28.875 0Z" fill="var(--fill-0, #000058)"/>
<g id="Ae">
<path d="M14.7274 20.4577H9.88007L8.6284 24.4631C8.61323 24.5845 8.53737 24.6452 8.40082 24.6452H6.12506C5.97334 24.6452 5.92024 24.5693 5.96576 24.4176L10.358 11.0132C10.4642 10.725 10.5249 10.3077 10.54 9.76155C10.54 9.67052 10.5856 9.625 10.6766 9.625H13.8627C13.9537 9.625 14.0068 9.66293 14.022 9.73879L18.9376 24.4404C18.9831 24.5769 18.9452 24.6452 18.8238 24.6452H16.275C16.1688 24.6452 16.0929 24.5997 16.0474 24.5086L14.7274 20.4577ZM10.4263 18.2957H14.204C14.113 17.9771 13.9233 17.3551 13.6351 16.4296C13.3468 15.5041 13.0813 14.6393 12.8386 13.8352C12.5958 13.0311 12.4138 12.3939 12.2924 11.9235H12.2696C12.1027 12.7125 11.4883 14.8365 10.4263 18.2957Z" fill="var(--fill-0, #9999F9)"/>
<path d="M26.4556 19.5929H22.291C22.3062 20.5639 22.5792 21.3301 23.1103 21.8915C23.6413 22.4528 24.4378 22.7335 25.4998 22.7335C26.4708 22.7335 27.3356 22.5666 28.0942 22.2328C28.1852 22.1722 28.2307 22.2025 28.2307 22.3239V23.9852C28.2307 24.0914 28.1852 24.1824 28.0942 24.2583C27.2294 24.6528 26.1674 24.85 24.9081 24.85C23.042 24.85 21.6689 24.319 20.789 23.257C19.9242 22.1797 19.4918 20.837 19.4918 19.2288C19.4918 17.5599 19.9469 16.1641 20.8572 15.0414C21.7676 13.9186 23.0116 13.3573 24.5895 13.3573C26.0915 13.3573 27.2066 13.82 27.9349 14.7455C28.6783 15.671 29.05 16.7558 29.05 17.9999C29.05 18.6219 29.0197 19.0619 28.959 19.3198C28.9438 19.426 28.8831 19.4867 28.7769 19.5019C28.3824 19.5626 27.6087 19.5929 26.4556 19.5929ZM22.291 17.8406H25.295C25.9474 17.8406 26.3191 17.8254 26.4101 17.7951C26.4253 17.7344 26.4329 17.6282 26.4329 17.4765C26.4329 16.8999 26.2812 16.3841 25.9777 15.9289C25.6743 15.4738 25.1812 15.2462 24.4985 15.2462C23.8309 15.2462 23.3151 15.4889 22.951 15.9744C22.5868 16.4599 22.3668 17.082 22.291 17.8406Z" fill="var(--fill-0, #9999F9)"/>
</g>
</g>
</svg>
