<svg preserveAspectRatio="none" width="100%" height="100%" overflow="visible" style="display: block;" viewBox="0 0 35 35" fill="none" xmlns="http://www.w3.org/2000/svg">
<g id="Media Encoder">
<path id="Vector" d="M28.875 0H6.125C2.74226 0 0 2.74226 0 6.125V28.875C0 32.2577 2.74226 35 6.125 35H28.875C32.2577 35 35 32.2577 35 28.875V6.125C35 2.74226 32.2577 0 28.875 0Z" fill="var(--fill-0, #000058)"/>
<g id="Me">
<path d="M4.32057 9.93669C4.33573 9.84557 4.39634 9.8 4.50242 9.8H8.29841C8.43479 9.8 8.51056 9.85316 8.52571 9.95947C10.4654 16.6115 11.5186 20.3628 11.6852 21.2133H11.708C11.8898 20.4843 12.4505 18.5631 13.39 15.4497C14.3447 12.3211 14.8978 10.491 15.0494 9.95947C15.0948 9.85316 15.163 9.8 15.2539 9.8H18.9363C19.0423 9.8 19.103 9.84557 19.1181 9.93669L19.7546 24.7899C19.7697 24.9114 19.7091 24.9722 19.5727 24.9722H16.9133C16.792 24.9722 16.7314 24.919 16.7314 24.8127C16.6102 18.7074 16.5723 14.3866 16.6178 11.8503H16.595C16.5041 12.2452 15.2691 16.566 12.89 24.8127C12.8445 24.919 12.7687 24.9722 12.6627 24.9722H10.4351C10.2835 24.9722 10.2002 24.919 10.185 24.8127C8.57875 19.3453 7.39676 15.0169 6.63908 11.8275H6.61635C6.58604 15.6851 6.46481 20.0135 6.25266 24.8127C6.25266 24.919 6.19205 24.9722 6.07082 24.9722H3.68412C3.54774 24.9722 3.48712 24.9114 3.50228 24.7899L4.32057 9.93669Z" fill="var(--fill-0, #9999F9)"/>
<path d="M28.886 19.9604H24.3172C24.3323 20.8868 24.6202 21.631 25.1809 22.1929C25.7568 22.7396 26.5902 23.013 27.6813 23.013C28.7572 23.013 29.6967 22.8232 30.4999 22.4435C30.5908 22.4131 30.6362 22.4511 30.6362 22.5574V24.266C30.6362 24.4027 30.5908 24.4938 30.4999 24.5394C29.5452 24.9798 28.4011 25.2 27.0676 25.2C26.0523 25.2 25.1658 25.0405 24.4081 24.7216C23.6504 24.4027 23.0594 23.9698 22.6351 23.4231C22.2108 22.8763 21.8926 22.284 21.6804 21.6462C21.4834 20.9931 21.3849 20.2945 21.3849 19.5503C21.3849 17.8949 21.8623 16.5052 22.817 15.3814C23.7868 14.2423 25.1052 13.6728 26.7721 13.6728C28.348 13.6728 29.53 14.1436 30.318 15.0852C31.106 16.0268 31.5 17.1279 31.5 18.3885C31.5 18.8593 31.4697 19.2921 31.4091 19.687C31.3939 19.7933 31.3333 19.854 31.2272 19.8692C30.8029 19.93 30.0225 19.9604 28.886 19.9604ZM24.3172 18.1834H27.5449C28.2571 18.1834 28.6587 18.1682 28.7496 18.1379C28.7648 18.0771 28.7723 17.9708 28.7723 17.8189C28.7723 17.2418 28.6057 16.7254 28.2723 16.2698C27.9541 15.8142 27.4237 15.5864 26.6811 15.5864C25.9689 15.5864 25.4082 15.837 24.9991 16.3382C24.6051 16.8242 24.3778 17.4393 24.3172 18.1834Z" fill="var(--fill-0, #9999F9)"/>
</g>
</g>
</svg>
