<svg preserveAspectRatio="none" width="100%" height="100%" overflow="visible" style="display: block;" viewBox="0 0 9.1745 10.7038" fill="none" xmlns="http://www.w3.org/2000/svg">
<g id="g3492">
<path id="path3494" d="M5.69577 0C5.63257 0 5.57268 0.0282143 5.53255 0.0770249C5.49227 0.125765 5.47598 0.189882 5.48804 0.251953L6.37192 4.80073C6.456 5.23332 6.43526 5.54382 6.31359 5.67501C6.2391 5.75521 6.01536 5.88973 5.35381 5.88973H3.75251L2.64122 0.171261C2.62189 0.0718053 2.53478 0 2.43349 0H0.211619C0.148419 0 0.0885345 0.0282143 0.0483292 0.0770249C0.00812384 0.125765 -0.0081697 0.189952 0.00389189 0.251953L2.00203 10.5326C2.02135 10.632 2.10846 10.7038 2.20975 10.7038H4.43163C4.49483 10.7038 4.55471 10.6756 4.59492 10.6268C4.63512 10.578 4.65141 10.5139 4.63935 10.4518L4.15717 7.97053H5.87979C7.19211 7.97053 8.08199 7.73917 8.60028 7.26319C9.12859 6.77763 9.29344 6.00124 9.09029 4.95534L8.16063 0.171261C8.14131 0.0718053 8.05427 0 7.95291 0H5.69577Z" fill="var(--fill-0, black)"/>
</g>
</svg>
